name Walk3.mot
datacolumns 19
datarows 20
range 2.96600000 2.98500000
endheader

                time	   L_ground_force_vx	   L_ground_force_vy	   L_ground_force_vz	   L_ground_force_px	   L_ground_force_py	   L_ground_force_pz	   R_ground_force_vx	   R_ground_force_vy	   R_ground_force_vz	   R_ground_force_px	   R_ground_force_py	   R_ground_force_pz	   L_ground_torque_x	   L_ground_torque_y	   L_ground_torque_z	   R_ground_torque_x	   R_ground_torque_y	   R_ground_torque_z	
          2.96600000	         22.02409708	        920.51368714	        -49.41747506	          0.26666279	          0.00000000	          0.11623564	          0.00000000	          0.00000000	          0.00000000	          0.00000000	          0.00000000	          0.00000000	          0.00000000	          0.65666747	          0.00000000	          0.00000000	          0.00000000	          0.00000000	
          2.96700000	         22.51158606	        921.41253674	        -49.58682943	          0.26680394	          0.00000000	          0.11625376	          0.00000000	          0.00000000	          0.00000000	          0.00000000	          0.00000000	          0.00000000	          0.00000000	          0.60106649	          0.00000000	          0.00000000	          0.00000000	          0.00000000	
          2.96800000	         22.99961198	        922.22781772	        -49.74105956	          0.26686711	          0.00000000	          0.11628003	          0.00000000	          0.00000000	          0.00000000	          0.00000000	          0.00000000	          0.00000000	          0.00000000	          0.54591023	          0.00000000	          0.00000000	          0.00000000	          0.00000000	
          2.96900000	         23.48717582	        923.01468095	        -49.86601285	          0.26691559	          0.00000000	          0.11631551	          0.00000000	          0.00000000	          0.00000000	          0.00000000	          0.00000000	          0.00000000	          0.00000000	          0.49329875	          0.00000000	          0.00000000	          0.00000000	          0.00000000	
          2.97000000	         23.98259274	        923.84072885	        -49.96024480	          0.26702052	          0.00000000	          0.11636142	          0.00000000	          0.00000000	          0.00000000	          0.00000000	          0.00000000	          0.00000000	          0.00000000	          0.44287300	          0.00000000	          0.00000000	          0.00000000	          0.00000000	
          2.97100000	         24.49126916	        924.73888390	        -50.03093415	          0.26719510	          0.00000000	          0.11641426	          0.00000000	          0.00000000	          0.00000000	          0.00000000	          0.00000000	          0.00000000	          0.00000000	          0.38893217	          0.00000000	          0.00000000	          0.00000000	          0.00000000	
          2.97200000	         25.00372228	        925.68603357	        -50.08759993	          0.26739351	          0.00000000	          0.11646149	          0.00000000	          0.00000000	          0.00000000	          0.00000000	          0.00000000	          0.00000000	          0.00000000	          0.32541829	          0.00000000	          0.00000000	          0.00000000	          0.00000000	
          2.97300000	         25.50268423	        926.62444709	        -50.13885010	          0.26755924	          0.00000000	          0.11648910	          0.00000000	          0.00000000	          0.00000000	          0.00000000	          0.00000000	          0.00000000	          0.00000000	          0.25172965	          0.00000000	          0.00000000	          0.00000000	          0.00000000	
          2.97400000	         25.97982476	        927.52205168	        -50.19351198	          0.26767334	          0.00000000	          0.11649929	          0.00000000	          0.00000000	          0.00000000	          0.00000000	          0.00000000	          0.00000000	          0.00000000	          0.17316771	          0.00000000	          0.00000000	          0.00000000	          0.00000000	
          2.97500000	         26.43898246	        928.39451127	        -50.26681173	          0.26776416	          0.00000000	          0.11650592	          0.00000000	          0.00000000	          0.00000000	          0.00000000	          0.00000000	          0.00000000	          0.00000000	          0.09872038	          0.00000000	          0.00000000	          0.00000000	          0.00000000	
          2.97600000	         26.88480348	        929.26318492	        -50.37670386	          0.26788062	          0.00000000	          0.11651202	          0.00000000	          0.00000000	          0.00000000	          0.00000000	          0.00000000	          0.00000000	          0.00000000	          0.03559725	          0.00000000	          0.00000000	          0.00000000	          0.00000000	
          2.97700000	         27.31585183	        930.12921776	        -50.52707501	          0.26805600	          0.00000000	          0.11650874	          0.00000000	          0.00000000	          0.00000000	          0.00000000	          0.00000000	          0.00000000	          0.00000000	         -0.01441699	          0.00000000	          0.00000000	          0.00000000	          0.00000000	
          2.97800000	         27.72883489	        930.98407353	        -50.69944637	          0.26828394	          0.00000000	          0.11649507	          0.00000000	          0.00000000	          0.00000000	          0.00000000	          0.00000000	          0.00000000	          0.00000000	         -0.05236099	          0.00000000	          0.00000000	          0.00000000	          0.00000000	
          2.97900000	         28.12011359	        931.81790498	        -50.86738931	          0.26852801	          0.00000000	          0.11648456	          0.00000000	          0.00000000	          0.00000000	          0.00000000	          0.00000000	          0.00000000	          0.00000000	         -0.08143312	          0.00000000	          0.00000000	          0.00000000	          0.00000000	
          2.98000000	         28.48265927	        932.62304040	        -51.01553187	          0.26876063	          0.00000000	          0.11649039	          0.00000000	          0.00000000	          0.00000000	          0.00000000	          0.00000000	          0.00000000	          0.00000000	         -0.10844100	          0.00000000	          0.00000000	          0.00000000	          0.00000000	
          2.98100000	         28.81170793	        933.40446731	        -51.13963217	          0.26898735	          0.00000000	          0.11651405	          0.00000000	          0.00000000	          0.00000000	          0.00000000	          0.00000000	          0.00000000	          0.00000000	         -0.14093172	          0.00000000	          0.00000000	          0.00000000	          0.00000000	
          2.98200000	         29.11116873	        934.18989704	        -51.23865035	          0.26923070	          0.00000000	          0.11655149	          0.00000000	          0.00000000	          0.00000000	          0.00000000	          0.00000000	          0.00000000	          0.00000000	         -0.18288768	          0.00000000	          0.00000000	          0.00000000	          0.00000000	
          2.98300000	         29.38963579	        935.01499225	        -51.31763422	          0.26950409	          0.00000000	          0.11659644	          0.00000000	          0.00000000	          0.00000000	          0.00000000	          0.00000000	          0.00000000	          0.00000000	         -0.23334512	          0.00000000	          0.00000000	          0.00000000	          0.00000000	
          2.98400000	         29.66211920	        935.89673636	        -51.39403456	          0.26980834	          0.00000000	          0.11663728	          0.00000000	          0.00000000	          0.00000000	          0.00000000	          0.00000000	          0.00000000	          0.00000000	         -0.28700683	          0.00000000	          0.00000000	          0.00000000	          0.00000000	
          2.98500000	         29.95811204	        936.82586027	        -51.49411956	          0.27013933	          0.00000000	          0.11666567	          0.00000000	          0.00000000	          0.00000000	          0.00000000	          0.00000000	          0.00000000	          0.00000000	         -0.33380188	          0.00000000	          0.00000000	          0.00000000	          0.00000000	
